<svg id="_1687-logo-mobile" data-name="1687-logo-mobile" xmlns="http://www.w3.org/2000/svg" width="55.575" height="45" viewBox="0 0 55.575 45">
  <g id="_1687" data-name="1687" transform="translate(0 11.115)">
    <path id="Path_336" data-name="Path 336" d="M66.52,18.278v2.69H76.79q-2.15,4.749-4.269,9.437L67.862,40.7h3.086l.08-.181c1.636-3.674,3.284-7.343,4.9-10.905,1.677-3.7,3.326-7.372,4.9-10.91l.19-.428Z" transform="translate(-25.444 -18.013)" fill="#b88757"/>
    <path id="Path_335" data-name="Path 335" d="M52.021,27.091a5.047,5.047,0,0,0,1.147-1.429,4.785,4.785,0,0,0,.574-2.309,5.216,5.216,0,0,0-.446-2.138,5.7,5.7,0,0,0-2.923-2.923,5.443,5.443,0,0,0-6.011,1.154,5.53,5.53,0,0,0-1.172,1.74,5.379,5.379,0,0,0-.428,2.134,4.854,4.854,0,0,0,.574,2.343,5.044,5.044,0,0,0,1.15,1.431,7.322,7.322,0,0,0-2.529,2.366,6.914,6.914,0,0,0-1.142,3.893,7.1,7.1,0,0,0,.6,2.892,7.664,7.664,0,0,0,3.965,3.964,7.259,7.259,0,0,0,5.765,0A7.878,7.878,0,0,0,53.534,38.6a7.59,7.59,0,0,0,1.625-2.359,7.107,7.107,0,0,0,.6-2.892,6.847,6.847,0,0,0-1.159-3.9,7.381,7.381,0,0,0-2.575-2.367m-1.746-1.863a2.742,2.742,0,0,1-1.973.739,3.063,3.063,0,0,1-1.1-.2,2.764,2.764,0,0,1-.893-.544,2.413,2.413,0,0,1-.582-.821,2.527,2.527,0,0,1-.209-1.019,2.98,2.98,0,0,1,.213-1.112,2.849,2.849,0,0,1,.592-.926,2.787,2.787,0,0,1,.894-.621,2.719,2.719,0,0,1,2.171,0,2.618,2.618,0,0,1,.872.616,3.014,3.014,0,0,1,.579.931,2.973,2.973,0,0,1,.214,1.112,2.4,2.4,0,0,1-.777,1.843m-3.814,3.806a4.649,4.649,0,0,1,1.865-.377,5.03,5.03,0,0,1,1.852.411,4.769,4.769,0,0,1,2.511,2.5,4.369,4.369,0,0,1,.377,1.789,4.573,4.573,0,0,1-.377,1.843,4.955,4.955,0,0,1-1.044,1.533A4.895,4.895,0,0,1,50.1,37.771a4.692,4.692,0,0,1-3.683,0,4.617,4.617,0,0,1-1.48-1.039,5.007,5.007,0,0,1-1-1.536,4.746,4.746,0,0,1-.362-1.846,4.628,4.628,0,0,1,.362-1.827,4.51,4.51,0,0,1,1.007-1.479,5.034,5.034,0,0,1,1.52-1.013" transform="translate(-15.612 -17.848)" fill="#b88757"/>
    <path id="Path_334" data-name="Path 334" d="M26.729,27.942a7.569,7.569,0,0,0-2.377-1.573,7.389,7.389,0,0,0-2.9-.579,3.443,3.443,0,0,0-.9.118q.74-.819,1.733-1.757a36.074,36.074,0,0,1,4.609-3.576l.28-.188-.216-.26c-.221-.266-.436-.535-.646-.812s-.437-.561-.663-.832l-.183-.219-.231.169c-1.237.905-2.539,1.9-3.869,2.961a29.188,29.188,0,0,0-3.628,3.425A17.682,17.682,0,0,0,15.05,28.8a10.5,10.5,0,0,0-1.055,4.648v.007a6.943,6.943,0,0,0,.65,2.789,7.581,7.581,0,0,0,1.609,2.272A7.465,7.465,0,0,0,18.6,40.035a7.388,7.388,0,0,0,2.852.56,7.222,7.222,0,0,0,2.907-.6,7.831,7.831,0,0,0,2.374-1.589,7.52,7.52,0,0,0,1.609-2.343,7.306,7.306,0,0,0,0-5.783,7.533,7.533,0,0,0-1.609-2.343m-.484,5.235a4.571,4.571,0,0,1-.377,1.841,4.769,4.769,0,0,1-1.041,1.515,5.072,5.072,0,0,1-1.551,1.029,4.7,4.7,0,0,1-3.683,0,4.826,4.826,0,0,1-2.477-6.233,4.622,4.622,0,0,1,.992-1.5,4.914,4.914,0,0,1,1.486-1.011,4.456,4.456,0,0,1,1.823-.377,4.7,4.7,0,0,1,1.86.378,5.228,5.228,0,0,1,1.554,1.015,4.6,4.6,0,0,1,1.416,3.337" transform="translate(-5.353 -18.007)" fill="#b88757"/>
    <path id="Path_333" data-name="Path 333" d="M0,18.278v2.657H2.719V40.7H5.441V18.278Z" transform="translate(0 -18.013)" fill="#b88757"/>
  </g>
  <g id="border">
    <g id="bottom" transform="translate(0 38.413)">
      <rect id="Rectangle_120" data-name="Rectangle 120" width="55.575" height="2.47" transform="translate(0 4.117)" fill="#b88757"/>
      <rect id="Rectangle_121" data-name="Rectangle 121" width="55.575" height="1.235" fill="#b88757"/>
    </g>
    <g id="top">
      <rect id="Rectangle_119" data-name="Rectangle 119" width="55.575" height="1.235" transform="translate(0 5.352)" fill="#b88757"/>
      <rect id="Rectangle_118" data-name="Rectangle 118" width="55.575" height="2.47" fill="#b88757"/>
    </g>
  </g>
</svg>
