<svg id="_1687-logo" data-name="1687-logo" xmlns="http://www.w3.org/2000/svg" width="76.57" height="62" viewBox="0 0 76.57 62">
  <g id="_1687" data-name="1687" transform="translate(0 15.314)">
    <path id="Path_336" data-name="Path 336" d="M66.52,18.278v3.707H80.669q-2.962,6.543-5.881,13L68.37,49.173h4.252l.111-.249c2.254-5.062,4.524-10.118,6.75-15.025,2.311-5.1,4.582-10.157,6.752-15.032l.262-.59Z" transform="translate(-9.926 -17.912)" fill="#b88757"/>
    <path id="Path_335" data-name="Path 335" d="M56.254,30.583a6.953,6.953,0,0,0,1.58-1.969,6.593,6.593,0,0,0,.79-3.182,7.186,7.186,0,0,0-.614-2.946,7.853,7.853,0,0,0-4.027-4.028,7.5,7.5,0,0,0-8.282,1.59,7.619,7.619,0,0,0-1.615,2.4,7.411,7.411,0,0,0-.59,2.94,6.687,6.687,0,0,0,.791,3.229,6.95,6.95,0,0,0,1.584,1.972,10.089,10.089,0,0,0-3.484,3.26,9.526,9.526,0,0,0-1.573,5.364,9.78,9.78,0,0,0,.822,3.984A10.559,10.559,0,0,0,47.1,48.657a10,10,0,0,0,7.943,0,10.854,10.854,0,0,0,3.294-2.212,10.458,10.458,0,0,0,2.239-3.251A9.792,9.792,0,0,0,61.4,39.21a9.434,9.434,0,0,0-1.6-5.367,10.17,10.17,0,0,0-3.548-3.261m-2.405-2.567a3.778,3.778,0,0,1-2.718,1.018,4.221,4.221,0,0,1-1.514-.272,3.808,3.808,0,0,1-1.23-.75,3.325,3.325,0,0,1-.8-1.131,3.482,3.482,0,0,1-.288-1.4,4.106,4.106,0,0,1,.294-1.531A3.924,3.924,0,0,1,48.4,22.67a3.84,3.84,0,0,1,1.231-.855,3.746,3.746,0,0,1,2.991,0,3.608,3.608,0,0,1,1.2.848,4.153,4.153,0,0,1,.8,1.282,4.1,4.1,0,0,1,.294,1.531,3.313,3.313,0,0,1-1.07,2.539M48.594,33.26a6.406,6.406,0,0,1,2.569-.52,6.931,6.931,0,0,1,2.552.566,6.57,6.57,0,0,1,3.459,3.44,6.02,6.02,0,0,1,.519,2.465,6.3,6.3,0,0,1-.52,2.539,6.827,6.827,0,0,1-1.438,2.112A6.744,6.744,0,0,1,53.6,45.3a6.465,6.465,0,0,1-5.075,0,6.361,6.361,0,0,1-2.039-1.431,6.9,6.9,0,0,1-1.373-2.116,6.539,6.539,0,0,1-.5-2.543,6.376,6.376,0,0,1,.5-2.517A6.214,6.214,0,0,1,46.5,34.655a6.936,6.936,0,0,1,2.094-1.4" transform="translate(-6.09 -17.848)" fill="#b88757"/>
    <path id="Path_334" data-name="Path 334" d="M31.539,31.6a10.429,10.429,0,0,0-3.275-2.167,10.18,10.18,0,0,0-4-.8,4.743,4.743,0,0,0-1.245.162q1.02-1.128,2.388-2.421a49.7,49.7,0,0,1,6.35-4.927l.386-.259-.3-.358c-.3-.366-.6-.738-.89-1.119s-.6-.773-.913-1.147l-.253-.3-.318.232c-1.7,1.247-3.5,2.62-5.331,4.08a40.214,40.214,0,0,0-5,4.719,24.362,24.362,0,0,0-3.693,5.481,14.471,14.471,0,0,0-1.453,6.4v.01a9.566,9.566,0,0,0,.9,3.843,10.444,10.444,0,0,0,2.216,3.13,10.285,10.285,0,0,0,3.228,2.1,10.179,10.179,0,0,0,3.929.772,9.951,9.951,0,0,0,4.005-.821,10.79,10.79,0,0,0,3.271-2.189,10.361,10.361,0,0,0,2.216-3.228,10.066,10.066,0,0,0,0-7.968A10.378,10.378,0,0,0,31.539,31.6m-.667,7.212a6.3,6.3,0,0,1-.52,2.536,6.571,6.571,0,0,1-1.434,2.088,6.988,6.988,0,0,1-2.137,1.417,6.48,6.48,0,0,1-5.075,0,6.649,6.649,0,0,1-3.413-8.588,6.369,6.369,0,0,1,1.366-2.061,6.771,6.771,0,0,1,2.047-1.393,6.139,6.139,0,0,1,2.512-.519,6.473,6.473,0,0,1,2.563.521,7.2,7.2,0,0,1,2.141,1.4,6.339,6.339,0,0,1,1.951,4.6" transform="translate(-2.088 -17.91)" fill="#b88757"/>
    <path id="Path_333" data-name="Path 333" d="M0,18.278v3.66H3.746V49.174H7.5v-30.9Z" transform="translate(0 -17.912)" fill="#b88757"/>
  </g>
  <g id="border">
    <g id="bottom" transform="translate(0 52.925)">
      <rect id="Rectangle_120" data-name="Rectangle 120" width="76.57" height="3.403" transform="translate(0 5.672)" fill="#b88757"/>
      <rect id="Rectangle_121" data-name="Rectangle 121" width="76.57" height="1.702" fill="#b88757"/>
    </g>
    <g id="top">
      <rect id="Rectangle_119" data-name="Rectangle 119" width="76.57" height="1.702" transform="translate(0 7.374)" fill="#b88757"/>
      <rect id="Rectangle_118" data-name="Rectangle 118" width="76.57" height="3.403" fill="#b88757"/>
    </g>
  </g>
</svg>
